<svg width="40" height="40" viewBox="0 0 60 60" fill="none" xmlns="http://www.w3.org/2000/svg">
    <path d="M24.9351 52.965L30.1407 58.5927L35.0649 52.965C31.6705 52.691 28.7768 52.4525 24.9351 52.965Z"
      fill="#005380" fill-opacity="0.941176" stroke="#002A40" stroke-width="1.10678" stroke-linejoin="round" />
    <path
      d="M30.0002 52.3319C43.7535 52.3319 54.9028 41.1826 54.9028 27.4293C54.9028 13.676 43.7535 2.52673 30.0002 2.52673C16.2469 2.52673 5.09766 13.676 5.09766 27.4293C5.09766 41.1826 16.2469 52.3319 30.0002 52.3319Z"
      fill="#D8F2FF" fill-opacity="0.941176" stroke="#002A40" stroke-width="1.66017" stroke-linecap="square"
      stroke-linejoin="round" />
    <path d="M42.2992 33.1274H12.6626V36.0457H39.2189L42.2992 33.1274Z" fill="#003D5D" fill-opacity="0.941176" />
    <path
      d="M12.6626 19.2386V25.821V33.1274H42.2992L44.2623 31.2657L46.0873 29.2382C46.0873 29.2382 47.3201 27.8165 47.4703 27.6113C47.6205 27.406 47.9894 26.7204 47.6814 26.2414C47.3734 25.7625 47.0065 25.8216 46.7003 25.7846C46.394 25.7476 44.6852 25.7507 44.6852 25.7507L41.9521 25.786L39.2189 25.8211H29.3562V19.2386H12.6626Z"
      fill="#006398" fill-opacity="0.941176" />
    <path d="M29.3583 19.2408H12.6655V24.6998H29.3583V19.2408Z" fill="#004267" fill-opacity="0.941176" />
  </svg>